<?xml version="1.0" encoding="UTF-8"?>
<svg width="300pt" height="300pt" version="1.0" viewBox="0 0 300 300" xmlns="http://www.w3.org/2000/svg" xmlns:xlink="http://www.w3.org/1999/xlink">
<circle width="100" cx="150" cy="150" r="145" fill="#fff" stroke="#0d0d0d" stroke-width="5"/>
<circle width="100" cx="150" cy="150" r="105" fill="#fff" stroke="#38605c" stroke-width="3"/>
<path id="a" d="m148.39 267.96c-63.627-0.58425-114.74-52.979-114.16-117.02 0.58047-64.042 52.636-115.49 116.26-114.91 63.627 0.58426 114.74 52.981 114.16 117.02-0.58047 64.042-52.638 115.49-116.26 114.91zm5e-3 -0.48359c63.367 0.58187 115.2-50.646 115.78-114.43 0.5781-63.781-50.319-115.95-113.69-116.54-63.367-0.58187-115.2 50.648-115.78 114.43-0.5781 63.781 50.317 115.95 113.68 116.53z" color="#000000" fill="none" style="-inkscape-stroke:none"/>
<text transform="rotate(80.945 149.45 152.38)" fill="#000000" fill-opacity=".62461" font-family="Georgia" font-size="26px" letter-spacing="2.25px" stroke-width="3" word-spacing="3.75px" style="line-height:0" xml:space="preserve"><textPath font-family="Georgia" font-size="26px" font-weight="bold" letter-spacing="2.25px" word-spacing="3.75px" xlink:href="#a">BRAIN AGING PROGRAM</textPath></text>
<path id="b" d="m148.26 23.13c-71.294 0.65041-128.57 58.979-127.92 130.27 0.65041 71.294 58.979 128.57 130.27 127.92 71.294-0.65042 128.57-58.981 127.92-130.28-0.65041-71.294-58.981-128.57-130.28-127.92zm5e-3 0.53835c71.003-0.64776 129.08 56.381 129.73 127.38 0.64776 71.004-56.383 129.08-127.39 129.73-71.004 0.64776-129.08-56.383-129.73-127.39-0.64776-71.004 56.381-129.08 127.38-129.73z" color="#000000" fill="none" style="-inkscape-stroke:none"/>
<text transform="matrix(-.32651 -.93292 .93695 -.32879 55.288 339.19)" fill="#b21016" fill-opacity=".62353" font-family="Georgia" font-size="16px" letter-spacing="2.2712px" stroke-width=".62362" word-spacing="4.5423px" style="line-height:0;white-space:pre" xml:space="preserve"><textPath dx="0" rotate="0 0 0 0 0 0 0 0 0 0 0 0 0 0 0 0 0 0 0 0 0 0 0" fill="#b21016" fill-opacity=".62353" font-family="Georgia" font-size="16px" font-weight="bold" letter-spacing="2.2712px" word-spacing="4.5423px" style="line-height:0" xlink:href="#b">FRAMINGHAM HEART STUDY</textPath></text>
<path d="m137.3 88.4c-11.9 3.9-21.2 11-26 19.8-2.5 4.7-2.5 19.3 0 23.1 3 4.6 7 6.4 15.8 7 6.3 0.5 9.2 1.3 12.8 3.4 4 2.4 5.7 2.7 13.7 2.8 6.7 0 9.8 0.5 11.6 1.7 3.5 2.3 6.6 9.1 7.4 16 0.4 3.2 1 5.8 1.3 5.8 0.4 0 3.5-4.1 7-9.1s8.9-12.1 12-15.7c8.3-9.8 9.8-12.2 11.7-18.9 3.2-11.7-0.8-21.3-12.4-29-9.9-6.7-17.2-8.6-33.7-9-12.6-0.3-14.7-0.1-21.2 2.1zm41.6 8.1c3.1 1.6 4.1 3.3 4.1 7.4 0 8.5-11.8 10.8-15.2 3-0.9-2.1-1.9-2.9-3.3-2.7-1.7 0.3-2 1.1-2 5.3v5l6.8 0.3 6.7 0.3v3.8c0 3 0.6 4.2 3 5.9 5.5 4.1 3 13.2-3.7 13.2-3.5 0-7.3-3.6-7.3-7 0-3.1 2.5-7 4.6-7 0.9 0 1.4-1.1 1.4-3.5v-3.5h-13.6c-13.5 0-13.5 0-13.2 2.2 0.2 1.7 1.1 2.4 3.1 2.6 2.7 0.3 2.7 0.4 2.7 7.3v6.9h-14v-6.9c0-6.9 0-7 2.8-7.3 2.2-0.2 2.8-0.8 3-3.5l0.3-3.2 14.4-0.6 0.6-10.6-3.3 0.3c-2.8 0.2-3.4 0.7-3.6 3-0.3 2.8-0.4 2.8-7.3 2.8h-6.9v-14h14v6h6.8c6.2 0 7-0.2 8.1-2.4 2.3-4.3 6.5-5.5 11-3.1z" fill="#38605c" stroke-width=".1"/>
<path d="m131.2 67.9c-22 5.4-38.6 20.8-43.3 40.1-2.1 8.7-1.6 22 1.5 33.8 3.3 13.2 3.3 17.7-0.5 28.2-4.1 11.3-4.6 15.5-2.4 18 1.1 1.2 3.1 2 5.2 2 3.7 0 3.7 0.1 2.3 4.9-0.8 2.7-0.6 3.8 0.5 5.1 0.8 0.9 1.5 2.2 1.5 2.8 0 0.7 1 2.2 2.2 3.4 1.7 1.7 2.1 3.2 1.9 6.8-0.1 2.6 0.5 6.5 1.5 8.9 3.1 7.8 10 8.9 21.7 3.6 7.6-3.5 10.5-2.9 10.9 2.3 0.3 3.7 0.3 3.7 5.3 4 12.2 0.8 38-8.4 45.4-16.2 4.3-4.4 3.3-4.5-5.5-0.5-8.7 3.8-24.2 8.4-31.5 9.3-5.6 0.6-5.7 0.6-6.9-2.5-2.6-6.3-10.2-7.5-20.6-3.3-3.5 1.4-7.6 2.4-9.1 2.2-2.8-0.3-2.8-0.3-3.3-9.8-0.4-8.5-0.7-9.6-2.7-10.5-2.1-1.1-2.1-1.2-0.5-2.9 1.6-1.6 1.6-1.8-0.3-3.4-1.3-1.1-2-3-2.1-5.4-0.1-5.3-1.9-7.1-6.6-6.3l-3.8 0.7 1.9-4.4c1-2.3 2.5-6.8 3.4-9.8 3-10.6 3-13.8 0.1-25.5-3.8-15.6-4.2-26.3-1.4-35.7 5.2-17 17.3-27.5 37.9-32.7 12.1-3 26.8-2.9 41.3 0.4 12.4 2.8 12.8 2.8 12.8 1.6 0-1.3-13.5-7.2-21.4-9.2-9.3-2.4-25.4-2.4-35.4 0z" fill="#38605c" stroke-width=".1"/>
<path d="m170.5 99c-3.7 4.1-0.9 11 4.6 11 3.3 0 6.9-3.4 6.9-6.5 0-5.4-7.8-8.5-11.5-4.5z" fill="#38605c" stroke-width=".1"/>
<path d="m141 128.5v5.6l5.3-0.3 5.2-0.3v-10l-5.2-0.3-5.3-0.3z" fill="#38605c" stroke-width=".1"/>
</svg>
