<?xml version="1.0" encoding="UTF-8" standalone="no"?>
<svg
   version="1.0"
   width="300pt"
   height="300pt"
   viewBox="0 0 300 300"
   preserveAspectRatio="xMidYMid meet"
   id="svg1"
   sodipodi:docname="fhs_bap_04_withte.svg"
   inkscape:version="1.3.2 (091e20e, 2023-11-25, custom)"
   xmlns:inkscape="http://www.inkscape.org/namespaces/inkscape"
   xmlns:sodipodi="http://sodipodi.sourceforge.net/DTD/sodipodi-0.dtd"
   xmlns="http://www.w3.org/2000/svg"
   xmlns:svg="http://www.w3.org/2000/svg">
  <defs
     id="defs1" />
  <sodipodi:namedview
     id="namedview1"
     pagecolor="#ffffff"
     bordercolor="#000000"
     borderopacity="0.25"
     inkscape:showpageshadow="2"
     inkscape:pageopacity="0.0"
     inkscape:pagecheckerboard="0"
     inkscape:deskcolor="#d1d1d1"
     inkscape:document-units="pt"
     inkscape:zoom="2.68"
     inkscape:cx="200"
     inkscape:cy="200"
     inkscape:window-width="2560"
     inkscape:window-height="1330"
     inkscape:window-x="-12"
     inkscape:window-y="-12"
     inkscape:window-maximized="1"
     inkscape:current-layer="svg1" />
  <circle
     id="out"
     fill="#ffffff"
     cx="150"
     cy="-150"
     width="100"
     stroke-width="5"
     stroke="#0d0d0d"
     r="145"
     transform="scale(1,-1)" />
  <circle
     id="in"
     fill="#ffffff"
     cx="150"
     cy="-150"
     width="100"
     stroke-width="3"
     stroke="#38605c"
     r="105"
     transform="scale(1,-1)" />
  <path
     id="brain"
     fill="#38605c"
     d="m 137.3,88.4 c -11.9,3.9 -21.2,11 -26,19.8 -2.5,4.7 -2.5,19.3 0,23.1 3,4.6 7,6.4 15.8,7 6.3,0.5 9.2,1.3 12.8,3.4 4,2.4 5.7,2.7 13.7,2.8 6.7,0 9.8,0.5 11.6,1.7 3.5,2.3 6.6,9.1 7.4,16 0.4,3.2 1,5.8 1.3,5.8 0.4,0 3.5,-4.1 7,-9.1 3.5,-5 8.9,-12.1 12,-15.7 8.3,-9.8 9.8,-12.2 11.7,-18.9 3.2,-11.7 -0.8,-21.3 -12.4,-29 -9.9,-6.7 -17.2,-8.6 -33.7,-9 -12.6,-0.3 -14.7,-0.1 -21.2,2.1 z m 41.6,8.1 c 3.1,1.6 4.1,3.3 4.1,7.4 0,8.5 -11.8,10.8 -15.2,3 -0.9,-2.1 -1.9,-2.9 -3.3,-2.7 -1.7,0.3 -2,1.1 -2,5.3 v 5 l 6.8,0.3 6.7,0.3 v 3.8 c 0,3 0.6,4.2 3,5.9 5.5,4.1 3,13.2 -3.7,13.2 -3.5,0 -7.3,-3.6 -7.3,-7 0,-3.1 2.5,-7 4.6,-7 0.9,0 1.4,-1.1 1.4,-3.5 V 117 h -13.6 c -13.5,0 -13.5,0 -13.2,2.2 0.2,1.7 1.1,2.4 3.1,2.6 2.7,0.3 2.7,0.4 2.7,7.3 v 6.9 h -7 -7 v -6.9 c 0,-6.9 0,-7 2.8,-7.3 2.2,-0.2 2.8,-0.8 3,-3.5 l 0.3,-3.2 7.2,-0.3 7.2,-0.3 0.3,-5.3 0.3,-5.3 -3.3,0.3 c -2.8,0.2 -3.4,0.7 -3.6,3 -0.3,2.8 -0.4,2.8 -7.3,2.8 H 139 v -7 -7 h 7 7 v 3 3 h 6.8 c 6.2,0 7,-0.2 8.1,-2.4 2.3,-4.3 6.5,-5.5 11,-3.1 z"
     style="stroke-width:0.1" />
  <path
     id="face"
     fill="#38605c"
     d="m 131.2,67.9 c -22,5.4 -38.6,20.8 -43.3,40.1 -2.1,8.7 -1.6,22 1.5,33.8 3.3,13.2 3.3,17.7 -0.5,28.2 -4.1,11.3 -4.6,15.5 -2.4,18 1.1,1.2 3.1,2 5.2,2 3.7,0 3.7,0.1 2.3,4.9 -0.8,2.7 -0.6,3.8 0.5,5.1 0.8,0.9 1.5,2.2 1.5,2.8 0,0.7 1,2.2 2.2,3.4 1.7,1.7 2.1,3.2 1.9,6.8 -0.1,2.6 0.5,6.5 1.5,8.9 3.1,7.8 10,8.9 21.7,3.6 7.6,-3.5 10.5,-2.9 10.9,2.3 0.3,3.7 0.3,3.7 5.3,4 12.2,0.8 38,-8.4 45.4,-16.2 4.3,-4.4 3.3,-4.5 -5.5,-0.5 -8.7,3.8 -24.2,8.4 -31.5,9.3 -5.6,0.6 -5.7,0.6 -6.9,-2.5 -2.6,-6.3 -10.2,-7.5 -20.6,-3.3 -3.5,1.4 -7.6,2.4 -9.1,2.2 -2.8,-0.3 -2.8,-0.3 -3.3,-9.8 -0.4,-8.5 -0.7,-9.6 -2.7,-10.5 -2.1,-1.1 -2.1,-1.2 -0.5,-2.9 1.6,-1.6 1.6,-1.8 -0.3,-3.4 -1.3,-1.1 -2,-3 -2.1,-5.4 -0.1,-5.3 -1.9,-7.1 -6.6,-6.3 l -3.8,0.7 1.9,-4.4 c 1,-2.3 2.5,-6.8 3.4,-9.8 3,-10.6 3,-13.8 0.1,-25.5 -3.8,-15.6 -4.2,-26.3 -1.4,-35.7 5.2,-17 17.3,-27.5 37.9,-32.7 12.1,-3 26.8,-2.9 41.3,0.4 12.4,2.8 12.8,2.8 12.8,1.6 0,-1.3 -13.5,-7.2 -21.4,-9.2 -9.3,-2.4 -25.4,-2.4 -35.4,0 z"
     style="stroke-width:0.1" />
  <path
     id="gen1_f"
     fill="#38605c"
     d="m 170.5,99 c -3.7,4.1 -0.9,11 4.6,11 3.3,0 6.9,-3.4 6.9,-6.5 0,-5.4 -7.8,-8.5 -11.5,-4.5 z"
     style="stroke-width:0.1" />
  <path
     id="gen2_m"
     fill="#38605c"
     d="m 141,128.5 v 5.6 l 5.3,-0.3 5.2,-0.3 v -5 -5 l -5.2,-0.3 -5.3,-0.3 z"
     style="stroke-width:0.1" />
  <path
     id="up_01b"
     fill="#000000"
     d="m 25.5,147 c -1.3,1.4 -2.2,1.7 -2.9,1 -0.5,-0.5 -2.2,-1 -3.7,-1 -4,0 -5.9,3.3 -5.9,10.2 0,5.8 1.5,8.4 3.2,5.4 1.3,-2.3 17.3,-2.4 18.2,-0.1 0.3,0.8 1.1,1.5 1.7,1.5 0.8,0 1,-2.2 0.7,-7 -0.3,-5.6 -0.8,-7.4 -2.8,-9.5 -2.8,-3 -6,-3.2 -8.5,-0.5 z m 7.3,4.2 c 1.8,1.8 1.5,4.8 -0.5,4.8 -1,0 -2.8,0.3 -4,0.6 -1.9,0.5 -2.3,0.2 -2.3,-1.8 0,-2.8 1.7,-4.8 4,-4.8 0.9,0 2.1,0.5 2.8,1.2 z m -10,3.5 c 0.3,2 -0.1,2.3 -3.2,2.3 -2.8,0 -3.6,-0.4 -3.6,-1.8 0,-2.6 1,-3.3 4,-3 1.7,0.2 2.6,1 2.8,2.5 z"
     style="stroke-width:0.1" />
  <path
     id="up_rai"
     fill="#000000"
     d="m 29,86 c -2.5,5 -2.5,5.2 0.4,4.4 1.7,-0.4 4.6,0.5 9.5,3.1 11.5,6 9.3,8.9 -7.4,10 -5.5,0.3 -10.4,1 -10.8,1.4 -0.4,0.4 3.1,4.1 7.8,8.1 10,8.5 10.4,10.1 3.7,13.9 -4.3,2.3 -4.4,2.3 -5.8,0.3 -1.7,-2.5 -5.8,-3.6 -8.3,-2.2 -3.3,1.7 -6,14.9 -3.3,15.8 0.6,0.2 1.2,-0.1 1.2,-0.7 0,-2.5 16.5,-0.2 18.6,2.6 1.6,2.3 2,1.8 2.8,-4 0.6,-3.9 0.5,-4.7 -0.8,-4.7 -0.9,0 -1.6,0.4 -1.6,1 0,0.5 -1.6,1 -3.5,1 -4.9,0 -4.4,-1.5 1.5,-4.5 3.7,-1.9 5.1,-3.2 5.6,-5.3 0.3,-1.5 1.2,-4.4 2,-6.4 0.9,-2.6 1,-3.9 0.3,-4.4 -0.6,-0.4 -1.4,-0.2 -1.8,0.5 -0.5,0.7 -1.3,0.6 -2.8,-0.4 -3.1,-2.1 -1.7,-6.9 2,-7.3 1.5,-0.2 2.7,0.1 2.7,0.7 0,0.6 0.7,1.1 1.5,1.1 0.8,0 1.9,-1.8 2.7,-4.3 0.6,-2.3 1.5,-4.4 1.8,-4.7 0.3,-0.3 1.6,-2.2 2.9,-4.2 2.4,-4 2.1,-6.8 -0.6,-4.7 -1.2,1 -2.8,0.6 -8.9,-2.6 C 35.3,86.8 33,85 33,83.8 c 0,-3 -1.8,-2 -4,2.2 z m 3.4,23.5 c -0.7,1.8 -1.4,1.8 -3.8,0 -1.9,-1.4 -1.8,-1.5 1.2,-1.5 2.4,0 3,0.4 2.6,1.5 z m -7.9,21.1 c 3,3 0.1,5.3 -5.1,4 -2.6,-0.7 -3.1,-2.5 -1.2,-4.4 1.7,-1.7 4.4,-1.5 6.3,0.4 z"
     style="stroke-width:0.1" />
  <path
     id="up_05n"
     fill="#000000"
     d="m 46.8,59.7 c -3.4,3.6 -3.6,5.5 -0.5,4.8 1.5,-0.4 3.5,0.5 6.5,2.9 5.1,4.1 4.4,4.6 -7.2,4.6 -6.9,0 -8.6,0.3 -10,1.9 -2.1,2.3 -1.2,4.9 1,3 1.5,-1.3 1.3,-1.4 9.7,5.4 2.6,2.2 4.7,4.7 4.7,5.8 0,2.8 1.5,2.3 4.4,-1.3 2.6,-3.4 2.6,-5.4 -0.2,-3.9 -1.3,0.7 -3,0 -6.7,-2.7 L 43.6,76.5 54,76 c 7.5,-0.4 10.5,-0.9 10.5,-1.8 0,-0.7 -3.1,-3.7 -7,-6.8 -4.4,-3.5 -7.2,-6.5 -7.5,-8.1 l -0.5,-2.4 z"
     style="stroke-width:0.1" />
  <path
     id="up_06a"
     fill="#000000"
     d="m 67,40.9 c 0,0.5 1.3,5.2 3,10.6 1.8,5.7 2.7,10.7 2.4,12.1 -0.8,3 0.3,3 3.9,-0.1 2.9,-2.6 3.7,-5.1 1.2,-4.1 -2.7,1 -3.6,-3.5 -1.3,-6.1 1.7,-1.8 2.4,-2 4.4,-1.1 1.3,0.6 2.4,1.9 2.4,3 0,2.4 0.7,2.3 4.7,-0.8 3.2,-2.4 3.8,-4.9 0.9,-3.8 -0.8,0.3 -5.4,-2 -10.2,-5 C 69.9,40.2 67,39 67,40.9 Z m 7.9,9.7 c -1.5,1.9 -1.5,1.8 -2.7,-1.6 l -1.1,-3 2.5,1.6 c 1.9,1.3 2.2,2 1.3,3 z"
     style="stroke-width:0.1" />
  <path
     id="up_07g"
     fill="#000000"
     d="m 95.4,23.6 c -6.2,2.2 -9.9,6.6 -9.9,11.8 0,12.3 12.3,16.7 22.9,8.2 1.8,-1.4 1.8,-1.7 0.2,-5 -0.9,-1.9 -1.3,-4.1 -1,-5 0.8,-2 -0.6,-2 -5.1,0.1 -3.9,1.9 -4.6,3.3 -1.5,3.3 1.2,0 2.5,1 3.2,2.6 1.1,2.2 1,2.8 -0.7,4 -8.2,6 -18.8,-9.3 -10.9,-15.5 3.1,-2.5 5.2,-2.6 8,-0.6 1.2,0.8 2.4,1.2 2.7,0.8 0.7,-0.6 -2.4,-6.4 -3.3,-6.2 -0.3,0 -2.3,0.7 -4.6,1.5 z"
     style="stroke-width:0.1" />
  <path
     id="up_08i"
     fill="#000000"
     d="m 110.3,18.2 c -3.4,1.1 -4.5,2.8 -1.8,2.8 1.9,0 7.3,17.2 5.6,17.8 -0.6,0.2 -1.1,1 -1.1,1.8 0,1.5 2.4,1.2 7.8,-0.7 2.3,-0.9 2.2,-2.9 -0.2,-2.9 -1.8,0 -6.2,-15.8 -4.7,-17.3 2.7,-2.7 0.3,-3.4 -5.6,-1.5 z"
     style="stroke-width:0.1" />
  <path
     id="up_09n"
     fill="#000000"
     d="m 139.3,12.7 c -3.6,0.5 -4.3,1.8 -1.4,2.8 1.8,0.5 3.1,4.8 3.1,10.4 0,2.1 -1,1.4 -7.6,-4.8 -6.1,-5.9 -7.9,-7.1 -9.7,-6.5 -3.2,1 -3.4,1.4 -1.4,2.9 2.5,1.8 4.6,14.8 2.9,17.6 -1.8,2.8 -1.6,3 3,2.7 4.4,-0.3 6.2,-2.2 3,-3 -1.9,-0.5 -3.2,-4.9 -3.2,-10.8 0,-2.2 0.8,-1.6 7.3,4.8 10.2,10.2 10.6,10 8.5,-4.6 -0.8,-6.3 -0.8,-8.6 0,-9.4 1.6,-1.6 1.5,-2.8 0,-2.6 -0.7,0 -2.8,0.3 -4.5,0.5 z"
     style="stroke-width:0.1" />
  <path
     id="up_10g"
     fill="#000000"
     d="m 153.4,16.4 c -2.8,2.8 -3.4,4.1 -3.4,7.7 0,8.7 5.9,13.5 15.5,12.7 3.8,-0.3 4,-0.5 4.6,-4.2 0.3,-2.1 1.2,-4.2 1.9,-4.6 2.3,-1.4 -0.1,-3 -4.6,-3 -4.3,0 -5.9,1.5 -2.9,2.6 0.9,0.4 1.5,1.9 1.5,3.5 0,2.6 -0.3,2.9 -3.4,2.9 -4.5,0 -7.6,-3.7 -7.6,-9.1 0,-5.2 0.8,-6.7 4.2,-8.5 3.7,-1.9 7.3,-1.1 9.4,2.1 1.9,2.9 3.4,2.4 3.4,-1 0,-3.2 -2.7,-4.5 -9.5,-4.5 -5.1,0 -6,0.3 -9.1,3.4 z"
     style="stroke-width:0.1" />
  <path
     id="up_11p"
     fill="#000000"
     d="m 187,18.9 c 0,0.5 0.6,1.1 1.3,1.4 1.8,0.6 -3.9,17.7 -5.9,17.7 -3,0 -0.7,2.5 3.4,3.7 3.5,1 4.2,0.9 4.2,-0.2 0,-0.7 -0.5,-1.5 -1.1,-1.7 -0.7,-0.2 -0.7,-1.2 0,-3 0.9,-2.4 1.4,-2.6 5,-2.1 3.3,0.5 4.4,0.1 6.5,-2 4.9,-4.9 2.9,-9.7 -5.3,-12.8 -5.6,-2.1 -8.1,-2.4 -8.1,-1 z m 11,7.6 c 0,2.2 -2.3,5.5 -3.8,5.5 -1.7,-0.1 -3.2,-1.8 -2.8,-3.1 2.6,-7.1 2.5,-7 4.6,-5.9 1.1,0.6 2,2.1 2,3.5 z"
     style="stroke-width:0.1" />
  <path
     id="up_12r"
     fill="#000000"
     d="m 209.5,28 c 0.8,2.5 -6.9,16.8 -8.9,16.6 -2.9,-0.2 -1.7,1.8 2.4,4.2 l 4.2,2.5 -0.6,-2.9 c -0.6,-3.2 1.5,-7.1 3.3,-5.9 0.6,0.3 1.1,2.5 1.1,4.8 0,2.4 0.7,5.3 1.6,6.5 1.9,2.7 4.9,3.1 3.9,0.4 -0.3,-0.9 -0.9,-3.7 -1.2,-6.2 -0.5,-4.3 -0.4,-4.5 2.6,-5.7 3.4,-1.2 5.2,-4.7 4.1,-7.8 -0.6,-1.8 -10.3,-8.5 -12.3,-8.5 -0.4,0 -0.5,0.9 -0.2,2 z m 7.5,5.5 c 2,2.4 -0.3,6.5 -3.5,6.5 -2.9,0 -3.1,-1 -1,-5 1.7,-3.4 2.7,-3.7 4.5,-1.5 z"
     style="stroke-width:0.1" />
  <path
     id="up_13o"
     fill="#000000"
     d="m 228.4,44 c -4.1,1.6 -7.4,6.8 -7.4,11.6 0,6.5 3.9,10.5 10.8,11.2 5,0.4 5.3,0.3 9.2,-3.6 3.2,-3.2 4,-4.7 4,-7.6 0,-9.2 -8.3,-15 -16.6,-11.6 z m 10.6,4 c 3.3,3.3 2.6,7.6 -1.9,12.1 -4.2,4.2 -7.3,4.9 -10.3,2.2 -4.9,-4.4 1.2,-16.1 8.5,-16.3 0.9,0 2.6,0.9 3.7,2 z"
     style="stroke-width:0.1" />
  <path
     id="up_14g"
     fill="#000000"
     d="m 248.3,65.1 c -1.7,0.5 -4.3,2.4 -5.8,4.1 -2.3,2.8 -2.6,3.9 -2.3,8 0.5,4.7 4.4,11.3 7.3,12.5 0.8,0.2 2.7,-0.5 4.3,-1.7 1.7,-1.2 3.5,-2 4,-1.6 2.4,1.4 2.1,-1.6 -0.4,-4.9 -2.6,-3.4 -4.9,-4 -3.7,-0.9 0.6,1.6 -2.2,4.3 -4.5,4.4 -2.2,0 -4.1,-5.9 -3,-9.2 2.5,-7 12,-9.1 16.1,-3.6 1.8,2.4 1.9,3.1 0.8,5.4 -1.5,3.4 -0.8,4.1 2.4,2 3.2,-2.1 3.2,-3.4 -0.5,-8.4 -4.2,-5.9 -8.7,-7.7 -14.7,-6.1 z"
     style="stroke-width:0.1" />
  <path
     id="up_rom"
     fill="#000000"
     d="m 269,85.8 c 0,2.5 -14.5,8.8 -16.5,7.2 -2.2,-1.8 -2.6,0.4 -0.8,4.9 1.5,3.9 3.8,5.1 3.8,2 0,-1.4 5.3,-4.5 6.2,-3.6 0.2,0.3 -0.7,2.5 -2.1,5 -3.1,5.2 -3.1,5.9 -0.9,13.2 1.6,5.2 3.3,7.3 3.3,4 0,-2 3.4,-1.9 5.4,0.1 3.3,3.3 0.3,8.4 -4,6.7 -1.4,-0.5 -1.6,-0.1 -1,3.3 0.3,2.1 0.9,6.5 1.2,9.6 0.4,3.2 1,5.8 1.5,5.8 0.5,0 0.9,-0.6 0.9,-1.4 0,-2 3.4,-2.9 8.1,-2.1 l 4,0.7 -7.1,3.4 c -3.9,1.9 -6.9,3.8 -6.6,4.3 0.4,0.5 3.9,2.2 7.9,3.8 l 7.2,2.8 -5.9,0.3 c -3.2,0.2 -6.4,-0.2 -6.9,-0.7 -0.6,-0.6 -1.5,-1.1 -1.9,-1.1 -0.9,0 -1,4.5 -0.2,7.7 0.7,2.5 2.4,3.1 2.4,0.9 0,-1.1 2.2,-1.6 8.6,-2.1 7.5,-0.7 8.8,-0.5 9.6,0.9 1.5,2.6 2.8,1.8 2.8,-1.8 0,-3.2 -0.3,-3.5 -7.5,-6.6 -4.1,-1.8 -7.5,-3.6 -7.5,-3.9 0,-0.4 3.2,-2.2 7,-4 6.6,-3.2 7,-3.6 7,-6.7 0,-3.6 -1.3,-4.5 -2.4,-1.8 -0.9,2.3 -15.8,1.7 -18.2,-0.7 -2.5,-2.6 -0.5,-5.1 9.1,-11.1 4.7,-2.9 8.5,-5.8 8.5,-6.4 0,-1.1 -5.8,-2.5 -17.3,-4 -6.5,-0.9 -7.6,-3.1 -4.4,-8.7 1.4,-2.5 2.9,-4.1 3.8,-3.8 5.1,1.2 9.9,-1.3 9.9,-5.3 0,-3.2 -4.2,-12.6 -5.7,-12.6 -0.7,0 -1.3,0.8 -1.3,1.8 z m 3.3,7.1 c 1.1,4.3 -4.4,7.1 -7.3,3.6 -1.5,-1.8 -1.5,-1.7 2.5,-3.8 3.9,-2.1 4.2,-2.1 4.8,0.2 z m 3.2,26.6 c -2.1,1.7 -3.7,1.5 -4.3,-0.3 -0.2,-0.8 0.8,-1.2 3,-1.2 3.1,0.1 3.2,0.1 1.3,1.5 z"
     style="stroke-width:0.1" />
  <path
     id="dw_01f"
     fill="#c00000"
     d="m 40,197.8 c 0,1 -6.5,4.2 -8.5,4.2 -1.9,0 -1.9,1.1 0,3.6 1.4,1.8 1.6,1.8 2.6,0.1 1.4,-2.3 2.9,-2.2 2.9,0.3 0,1.8 0.3,1.9 2.1,1 1.7,-0.9 1.8,-1.4 0.8,-2.6 -1,-1.3 -1,-1.7 0.2,-2.5 1,-0.6 1.5,-0.2 1.7,1.6 0.4,2.7 1.9,3.3 2.8,1.1 0.6,-1.7 -2.2,-7.6 -3.6,-7.6 -0.6,0 -1,0.4 -1,0.8 z"
     style="stroke-width:0.1" />
  <path
     id="dw_02r"
     fill="#c00000"
     d="m 45,207.8 c 0,1.2 -6.6,5.2 -8.6,5.2 -1.2,0 -1.2,0.4 0.2,2.5 l 1.6,2.5 2,-2.3 c 1.8,-2 1.9,-2 1.3,-0.2 -1.5,4.1 -1.7,6.3 -0.6,7 0.7,0.4 1.6,-0.5 2.2,-2.4 0.6,-1.8 1.9,-3.1 3.1,-3.3 3.4,-0.5 4.6,-3.3 2.6,-6.5 -1.7,-2.8 -3.8,-4.2 -3.8,-2.5 z m 2.5,5.3 c -0.8,1.2 -3.5,1.2 -3.5,0 0,-1.1 2.2,-2 3.3,-1.4 0.4,0.2 0.5,0.9 0.2,1.4 z"
     style="stroke-width:0.1" />
  <path
     id="dw_03a"
     fill="#c00000"
     d="m 52,222.5 c -1.9,0.8 -4.7,1.4 -6.2,1.4 -3.1,0.1 -3.6,1.2 -1.2,3.2 1.3,1 1.7,1 2.4,0 0.4,-0.8 1.3,-1 1.9,-0.7 1.4,0.9 1.5,3.6 0.1,3.6 -1.5,0 -1.2,2.6 0.3,3.9 1.1,0.8 2,-0.2 4.6,-5.1 1.7,-3.4 2.8,-6.5 2.4,-6.9 -0.5,-0.3 -2.4,-0.1 -4.3,0.6 z"
     style="stroke-width:0.1" />
  <path
     id="dw_04m"
     fill="#c00000"
     d="m 60.5,230.3 c -0.6,1.2 -2.5,3.1 -4.2,4.2 -3.5,2.1 -3.9,4.8 -0.9,5.3 1,0.2 1.6,0 1.2,-0.6 -0.3,-0.5 0.1,-1.5 0.9,-2.2 1.8,-1.5 1.8,-1 0.5,2.4 -1.1,3 0,3.3 4.6,1.6 2.4,-0.9 2.5,-0.9 1.4,0.5 -0.7,0.8 -1.9,1.5 -2.6,1.5 -2,0 -1.7,1.4 0.6,3.5 1.7,1.5 2,1.6 2,0.3 0,-0.9 1.8,-3.2 4,-5.2 2.2,-2 4,-3.8 4,-4 0,-1.3 -3.6,-1.4 -6.6,-0.1 -3.7,1.5 -3.9,1.3 -2.3,-3.4 0.9,-2.6 0.9,-3.6 -0.2,-4.7 -1.2,-1.2 -1.6,-1 -2.4,0.9 z"
     style="stroke-width:0.1" />
  <path
     id="dw_05i"
     fill="#c00000"
     d="m 73.2,241.3 c 0.4,1.7 -4,7.7 -5.8,7.7 -1.9,0 -1.8,1 0.4,2.6 2.2,1.7 3.2,1.7 3.2,0.1 0,-0.7 1.6,-3 3.5,-5.1 3.3,-3.6 3.4,-4 1.8,-5.2 -2.3,-1.7 -3.5,-1.8 -3.1,-0.1 z"
     style="stroke-width:0.1" />
  <path
     id="dw_06n"
     fill="#c00000"
     d="m 79.3,246.4 c 0.6,1.6 -3.9,8.6 -5.6,8.6 -0.7,0 -0.3,0.7 0.7,1.5 2.4,1.8 3.8,1.9 3.5,0.2 -0.1,-0.6 0.1,-2 0.6,-3 1.1,-2.5 2.5,-0.3 2.5,4 0,4.9 1.6,4.8 5,-0.2 1.7,-2.5 3.6,-4.5 4.2,-4.5 0.6,0 0.3,-0.9 -0.7,-2 -1.7,-1.8 -2.9,-1.9 -3,-0.2 -0.1,0.4 -0.5,1.8 -0.9,3.1 -1,3 -2.6,1 -2.6,-3.5 0,-2.9 -1.5,-5.4 -3.3,-5.4 -0.5,0 -0.7,0.6 -0.4,1.4 z"
     style="stroke-width:0.1" />
  <path
     id="dw_07g"
     fill="#c00000"
     d="m 90.7,256.8 c -2.6,2.9 -2.2,7.7 0.9,10.1 3.5,2.7 5.5,2.6 7.7,-0.4 1.7,-2.3 1.7,-2.5 -0.2,-3.5 -2.7,-1.4 -3.1,-1.3 -3.1,1.1 0,2.8 -3.4,2.1 -3.8,-0.8 -0.8,-5.7 4.9,-8.4 7.4,-3.6 1.2,2.5 2.4,2 2.4,-0.8 0,-3.8 -8.4,-5.4 -11.3,-2.1 z"
     style="stroke-width:0.1" />
  <path
     id="dw_08h"
     fill="#c00000"
     d="m 105,261.2 c 0,1.3 -0.9,4.1 -1.9,6.1 -1.8,3.6 -1.8,3.8 -0.1,4.7 2.7,1.4 3,1.3 3,-1.3 0,-3 0.6,-3.6 3.1,-3 2.3,0.6 2.4,1.6 0.2,3.8 -1.4,1.4 -1.4,1.8 -0.2,2.6 1.9,1.2 5.2,1.1 4.4,-0.1 -0.8,-1.2 1.4,-8.2 2.8,-9.1 1.4,-1 -0.1,-2.9 -2.2,-2.9 -1.2,0 -1.8,0.7 -1.7,1.7 0,1 -0.7,1.9 -1.7,2.1 -2.1,0.4 -3.5,-2.7 -1.6,-3.8 1.6,-1 1.2,-1.5 -1.8,-2.4 -1.9,-0.6 -2.3,-0.4 -2.3,1.6 z"
     style="stroke-width:0.1" />
  <path
     id="dw_09a"
     fill="#c00000"
     d="m 121.6,268.1 c -1,1.8 -2.7,4 -3.8,5.1 -1.9,1.9 -1.6,3.8 0.6,3.8 0.8,0 1.6,-0.9 1.9,-2.1 0.7,-2.7 3.3,-1.9 3,0.9 -0.2,1.3 0.5,2.2 1.9,2.6 1.2,0.3 2.3,0.4 2.4,0.3 0.7,-0.9 -2.2,-13.7 -3,-13.7 -0.7,0 -2,1.4 -3,3.1 z"
     style="stroke-width:0.1" />
  <path
     id="dw_10m"
     fill="#c00000"
     d="m 133,266.2 c -0.1,0.2 -0.2,2.5 -0.4,5.3 -0.2,2.7 -0.6,5.8 -1,6.7 -0.7,1.5 -0.3,1.8 1.8,1.8 2.3,0 2.5,-0.3 2,-3.3 l -0.5,-3.2 1.5,3.2 c 0.8,1.8 1.7,3.3 2,3.3 0.3,0 1.2,-1.2 2.1,-2.8 l 1.6,-2.7 -0.4,2.8 c -0.5,3.1 1.1,4.4 4.1,3.2 1.1,-0.5 1.3,-0.9 0.5,-1.2 -1.6,-0.6 -1.7,-7.5 -0.2,-9 1.3,-1.3 0.4,-3.3 -1.4,-3.3 -0.7,0 -2.1,1.6 -3.1,3.5 -2.3,4.3 -3.2,4.4 -4.1,0.5 -0.4,-1.7 -1.5,-3.5 -2.6,-4 -1,-0.6 -1.9,-0.9 -1.9,-0.8 z"
     style="stroke-width:0.1" />
  <path
     id="dw_11h"
     fill="#c00000"
     d="m 153.5,268 c -0.4,0.6 -0.1,1.7 0.5,2.5 0.6,0.8 1,3.3 0.8,5.7 -0.2,3.7 0,4.3 1.7,4.3 1.5,0 1.9,-0.7 2,-3 0,-2.1 0.6,-3.1 1.9,-3.3 1.6,-0.4 1.8,0 1.3,2.7 -0.6,2.9 -0.5,3.1 2.4,3.1 2.7,0 3,-0.2 2.2,-2.3 -0.4,-1.2 -0.8,-4.1 -0.8,-6.5 0,-3.7 -0.2,-4.2 -2.2,-4.2 -2,0 -2.2,0.4 -1.7,2.4 0.4,1.8 0.1,2.5 -1.5,2.9 -2.5,0.6 -3.5,-0.6 -2.6,-3.3 0.5,-1.5 0.2,-2 -1.4,-2 -1.1,0 -2.3,0.5 -2.6,1 z"
     style="stroke-width:0.1" />
  <path
     id="dw_12e"
     fill="#c00000"
     d="m 172,265.6 c -0.8,0.3 -2.2,0.8 -3,1 -1.2,0.4 -1.2,0.7 -0.1,1.3 0.7,0.5 1.4,3 1.4,6 l 0.2,5.2 4,-0.7 c 4.9,-0.8 5.5,-1.1 5.5,-3 0,-1.6 -1.6,-1.9 -2.5,-0.4 -1,1.5 -3.5,1.2 -3.5,-0.5 0,-0.8 0.8,-1.5 1.8,-1.5 1.5,0 1.9,-0.7 1.8,-3.8 -0.2,-3.8 -1.8,-4.9 -5.6,-3.6 z m 3.7,3.1 c 0.2,0.6 -0.3,1.3 -1.2,1.6 -1,0.5 -1.5,0 -1.5,-1.4 0,-2.1 2.1,-2.2 2.7,-0.2 z"
     style="stroke-width:0.1" />
  <path
     id="dw_13a"
     fill="#c00000"
     d="m 184.6,264 c -0.2,1.4 -0.7,4.8 -1.1,7.7 -0.5,4.8 -0.4,5.1 1.5,4.6 1.5,-0.4 1.8,-1.1 1.4,-2.9 -0.5,-1.8 -0.2,-2.4 1,-2.4 0.9,0 1.9,0.7 2.2,1.5 0.6,1.5 3.5,2.1 4.6,1 0.3,-0.3 -0.5,-1.8 -1.7,-3.3 -1.3,-1.5 -3.5,-4.1 -4.8,-5.7 l -2.5,-3 z"
     style="stroke-width:0.1" />
  <path
     id="dw_14r"
     fill="#c00000"
     d="m 196.2,258.5 c -2.9,1.3 -4.4,3.5 -2.3,3.5 1.1,0 3.5,5.8 3.4,8.2 -0.2,2.1 0.4,2.2 3.6,0.4 2.3,-1.3 2.3,-1.4 0.5,-2.4 -1,-0.6 -1.5,-1.4 -1.1,-1.8 0.4,-0.4 1.3,-0.2 1.9,0.4 1.4,1.4 5.8,1.6 5.8,0.4 0,-0.5 -1.1,-1.4 -2.5,-2 -1.7,-0.8 -2.5,-2 -2.5,-3.6 0,-3.5 -2.7,-4.7 -6.8,-3.1 z m 3.8,3 c 0,0.8 -0.4,1.5 -0.9,1.5 -0.5,0 -1.1,-0.7 -1.5,-1.5 -0.3,-0.9 0,-1.5 0.9,-1.5 0.8,0 1.5,0.7 1.5,1.5 z"
     style="stroke-width:0.1" />
  <path
     id="dw_15t"
     fill="#c00000"
     d="m 207.3,252.7 c -3.7,2.1 -4.2,2.7 -3.2,4.4 0.5,1.1 1.4,1.7 2,1.4 0.5,-0.4 0.7,-1 0.4,-1.5 -0.3,-0.5 -0.1,-1.1 0.4,-1.5 1.2,-0.7 5.4,7.2 4.6,8.5 -0.9,1.4 1.7,1.2 3.8,-0.4 2,-1.6 2.2,-2.6 0.5,-2.6 -1.3,0 -4.8,-5.3 -4.8,-7.2 0,-0.6 0.7,-0.7 1.6,-0.4 1.1,0.4 1.4,0.1 1.2,-1.1 -0.5,-2.4 -1.8,-2.4 -6.5,0.4 z"
     style="stroke-width:0.1" />
  <path
     id="dw_16s"
     fill="#c00000"
     d="m 220.6,244.5 c -1.9,1.9 -1.9,2.1 -0.6,4.6 0.8,1.3 2.1,1.9 4.6,1.9 2.4,0 3.4,0.4 3.1,1.2 -0.2,0.7 -1.4,1.2 -2.6,1.1 -1.1,-0.2 -2.1,0.1 -2.1,0.7 0,3 6.5,2.1 7.5,-1.1 0.9,-2.9 -1.2,-4.9 -5.1,-4.9 -1.9,0 -3.4,-0.5 -3.4,-1 0,-0.6 0.9,-1 2.1,-1 1.2,0 1.9,-0.5 1.7,-1.3 -0.7,-1.9 -3.4,-2 -5.2,-0.2 z"
     style="stroke-width:0.1" />
  <path
     id="dw_17t"
     fill="#c00000"
     d="m 229.5,237.3 c -2.3,2 -3.6,3.8 -3.1,4.5 1,1.7 2.6,1.5 2.6,-0.3 0,-0.8 0.3,-1.5 0.6,-1.5 0.7,0 5.9,6.1 6,7.2 0.1,0.4 0.2,1.1 0.3,1.5 0.1,0.9 4.1,-2.8 4.1,-3.9 0,-0.4 -0.6,-0.8 -1.4,-0.8 -1.3,0 -5.6,-4.9 -5.6,-6.4 0,-0.3 0.7,-0.6 1.6,-0.6 1.6,0 1.5,-2.1 -0.2,-2.7 -0.6,-0.2 -2.8,1.2 -4.9,3 z"
     style="stroke-width:0.1" />
  <path
     id="dw_18u"
     fill="#c00000"
     d="m 241.5,225 c -1.1,1.2 -1.3,2 -0.6,2.5 0.6,0.3 1.1,0.3 1.1,0 0,-0.4 1.4,0.3 3,1.5 3.7,2.7 4.1,6 0.6,6 -1.5,0 -3.4,-1.2 -5.1,-3.1 -2.5,-3 -2.7,-3.1 -4,-1.3 -1.8,2.4 -1.9,3.8 -0.1,3.1 0.8,-0.3 2.2,0.3 3.2,1.5 3.2,3.5 5.3,4.1 8,2.3 3.5,-2.2 3.1,-6 -1,-10.5 -3.3,-3.7 -3.5,-3.8 -5.1,-2 z"
     style="stroke-width:0.1" />
  <path
     id="dw_19d"
     fill="#c00000"
     d="m 248.4,216.4 c -3.5,3.5 -4.3,5.6 -2.2,5.6 2,0 7.8,4.4 7.8,5.9 0,2.4 3.8,-1.7 5,-5.5 1.3,-3.7 0.2,-6.7 -3,-8.4 -2.9,-1.6 -4,-1.2 -7.6,2.4 z m 7.6,1.6 c 1.6,1.6 1.8,2.4 1,4 -1.1,2.1 -2.1,1.9 -6.4,-1.5 -1.6,-1.2 -1.7,-1.7 -0.6,-3 1.7,-2 3.6,-1.9 6,0.5 z"
     style="stroke-width:0.1" />
  <path
     id="dw_20y"
     fill="#c00000"
     d="m 256.5,202.1 c -0.5,1.4 -0.1,2.5 1.2,3.5 1.7,1.4 1.6,1.5 -0.8,1 -2.1,-0.5 -2.8,-0.1 -3.8,2 l -1.1,2.5 4.4,-0.6 c 3.7,-0.6 4.7,-0.4 6.5,1.4 2,2 2.1,2 3.1,0.1 1.4,-2.7 1.2,-4 -0.5,-3.4 -1.6,0.6 -6.5,-4.1 -6.5,-6.2 0,-2.3 -1.8,-2.5 -2.5,-0.3 z"
     style="stroke-width:0.1" />
</svg>
